<svg width="140" height="20" viewBox="0 0 140 20" fill="none" xmlns="http://www.w3.org/2000/svg">
<path d="M14.9048 1.15332L8.49609 19H6.40869L0 1.15332H2.17285L6.34766 12.9087C6.51855 13.3807 6.66911 13.8324 6.79932 14.2637C6.93766 14.695 7.05973 15.11 7.16553 15.5088C7.27132 15.9076 7.36491 16.2941 7.44629 16.6685C7.52767 16.2941 7.62126 15.9076 7.72705 15.5088C7.83285 15.1019 7.95492 14.6828 8.09326 14.2515C8.23161 13.812 8.38623 13.3522 8.55713 12.8721L12.7075 1.15332H14.9048ZM31.2949 19H21.3584V1.15332H31.2949V2.98438H23.4336V8.7583H30.8433V10.5649H23.4336V17.1689H31.2949V19ZM39.25 19V1.15332H41.3252V17.1445H49.2476V19H39.25ZM71.79 10.0522C71.79 11.4276 71.6151 12.6808 71.2651 13.812C70.9152 14.9351 70.3944 15.9035 69.7026 16.7173C69.019 17.5229 68.1686 18.1455 67.1514 18.585C66.1341 19.0244 64.9541 19.2441 63.6113 19.2441C62.2279 19.2441 61.0194 19.0244 59.9858 18.585C58.9604 18.1455 58.106 17.5189 57.4224 16.7051C56.7469 15.8913 56.2383 14.9188 55.8965 13.7876C55.5628 12.6564 55.396 11.4032 55.396 10.0278C55.396 8.20492 55.6971 6.60579 56.2993 5.23047C56.9015 3.85514 57.813 2.78499 59.0337 2.02002C60.2625 1.25505 61.8006 0.872559 63.6479 0.872559C65.4139 0.872559 66.8991 1.25098 68.1035 2.00781C69.3161 2.76465 70.2316 3.83073 70.8501 5.20605C71.4767 6.57324 71.79 8.18864 71.79 10.0522ZM57.5811 10.0522C57.5811 11.5659 57.7967 12.8761 58.228 13.9829C58.6593 15.0897 59.3185 15.9442 60.2056 16.5464C61.1007 17.1486 62.236 17.4497 63.6113 17.4497C64.9948 17.4497 66.126 17.1486 67.0049 16.5464C67.8919 15.9442 68.547 15.0897 68.9702 13.9829C69.3934 12.8761 69.605 11.5659 69.605 10.0522C69.605 7.74919 69.1208 5.95068 68.1523 4.65674C67.1921 3.35465 65.6906 2.70361 63.6479 2.70361C62.2645 2.70361 61.1252 3.00065 60.23 3.59473C59.3348 4.1888 58.6675 5.03516 58.228 6.13379C57.7967 7.22428 57.5811 8.53044 57.5811 10.0522ZM87.3989 2.72803C86.4142 2.72803 85.5272 2.89893 84.7378 3.24072C83.9565 3.57438 83.2892 4.06266 82.7358 4.70557C82.1906 5.34033 81.7715 6.10938 81.4785 7.0127C81.1855 7.91602 81.0391 8.93327 81.0391 10.0645C81.0391 11.5618 81.271 12.8639 81.7349 13.9707C82.2069 15.0693 82.9067 15.9198 83.8345 16.522C84.7703 17.1242 85.9382 17.4253 87.3379 17.4253C88.1354 17.4253 88.8841 17.3602 89.584 17.23C90.292 17.0916 90.9797 16.9207 91.647 16.7173V18.5239C90.9959 18.7681 90.3123 18.9471 89.5962 19.061C88.88 19.1831 88.0296 19.2441 87.0449 19.2441C85.2301 19.2441 83.7124 18.8698 82.4917 18.1211C81.2791 17.3643 80.3677 16.2982 79.7573 14.9229C79.1551 13.5475 78.854 11.924 78.854 10.0522C78.854 8.70133 79.0412 7.46842 79.4155 6.35352C79.798 5.23047 80.3514 4.26204 81.0757 3.44824C81.8081 2.63444 82.7033 2.00781 83.7612 1.56836C84.8273 1.12077 86.048 0.896973 87.4233 0.896973C88.3267 0.896973 89.1974 0.986491 90.0356 1.16553C90.8739 1.34456 91.6307 1.60091 92.3062 1.93457L91.4761 3.69238C90.9064 3.43197 90.2798 3.20817 89.5962 3.021C88.9207 2.82568 88.1883 2.72803 87.3989 2.72803ZM99.5166 19V1.15332H101.592V19H99.5166ZM115.98 19H113.893V2.98438H108.277V1.15332H121.571V2.98438H115.98V19ZM132.822 10.1011L137.57 1.15332H139.804L133.859 12.0786V19H131.784V12.1763L125.827 1.15332H128.098L132.822 10.1011Z" fill="#69B9FF"/>
</svg>
